<svg xmlns="http://www.w3.org/2000/svg" viewBox="0 0 400 400" id="Showing-Pride-2--Streamline-Barcelona.svg" height="400" width="400"><desc>SHOWING PRIDE 2 Streamline Illustration: https://streamlinehq.com</desc><defs></defs><path d="m389.13 254.74 -6.032 -29c-1.014 2.756 -3.742 3.726 -7.3 -1.122a33.722 33.722 0 0 1 -2.632 -4.318 4.984 4.984 0 0 1 -0.212 -5.216c-10.494 -8.046 -30.334 -17.97 -64.698 -18.506 0 0 -22.426 -34.434 -35.112 -37.152s-70 -7.476 -99.45 6.344a200.874 200.874 0 0 0 -30.694 18.12c-6.2 4.4 -11.816 9.622 -18.23 13.668 -6.63 4.182 -15.554 9.84 -16.768 18.23a202.6 202.6 0 0 0 -1.6 27.222l10.2 3.172s-3.4 -18.574 9.062 -23.106 26.05 8.6 21.066 33.98l46.378 8.014s-3.418 -33.782 16.898 -38.68 31.87 27.328 29.152 47.8c0 0 84.724 11.184 121.648 3.028s28.324 -22.478 28.324 -22.478zM181.46 201.758c-13.84 0.446 -47.264 1.354 -47.862 -0.2 -0.706 -1.838 17.752 -20.2 39.178 -29.108a5.028 5.028 0 0 1 6.524 2.61A114.908 114.908 0 0 1 186.2 195.6a5.034 5.034 0 0 1 -4.74 6.158zm110.156 28.922a18.41 18.41 0 0 1 -4.43 3.672 21.376 21.376 0 0 1 -6.94 2.776 20.242 20.242 0 0 1 -4.024 0.342 89.984 89.984 0 0 1 -11.048 -0.852c-9.418 -1.158 -22.51 -3.578 -22.826 -3.714a2.386 2.386 0 0 1 -1.694 -1.688c-0.472 -1.826 1.062 -2.716 3.08 -4.304 1.77 -1.4 3.588 -2.748 5.482 -3.974 7.126 -4.6 8.424 -3.762 18.16 -1.482 3.946 0.922 18.554 4.648 21.924 5.538a3.6 3.6 0 0 1 2.066 1 2.41 2.41 0 0 1 0.25 2.686zm-87.256 -30.172a0.558 0.558 0 0 1 -1.016 0.422c-0.6 -1.02 -1.15 -2.06 -1.702 -3.102a116.27 116.27 0 0 1 -6.882 -15.296c-1.616 -4.528 -3.644 -11.468 -2.18 -16.118a0.548 0.548 0 0 1 0.706 -0.36 5.362 5.362 0 0 1 2.6 -3c10.456 -5.324 65.12 -4.758 75.888 -1.36s32.848 34.66 32.848 34.66 -65.462 -5.154 -100.262 4.154z" fill="#f55555" stroke-width="1"></path><path d="M130.888 240.05c-1.262 -0.098 -2.034 1.124 -2.536 2.104 -1.706 3.342 -1.62 8.368 0.6 10.964 3.894 4.548 7.502 -5.532 4.704 -10.79a3.902 3.902 0 0 0 -2.768 -2.278z" fill="#ff8684" stroke-width="1"></path><path d="M134.228 226.486c-8.05 -3.42 -12.494 7.14 -13.958 13.2 -2.874 11.912 1.4 26.55 9.388 28.494 12.376 3.018 17.264 -21.922 11.64 -34.2a14.586 14.586 0 0 0 -7.07 -7.494zm-2.382 40.786a7.958 7.958 0 0 1 -6.416 -3.228c-4.256 -5.044 -5.6 -13.98 -4.74 -20.6a30.888 30.888 0 0 1 3.646 -11.228c1.6 -2.8 4 -5.652 7.56 -5.24a10.904 10.904 0 0 1 7.254 5.374c6.5 10.142 3.304 34.348 -7.304 34.922zM220.068 234c-7.418 -3.182 -12.428 2.27 -15.754 9.664 -8.986 19.978 -0.954 43.094 10 45.658 19.64 4.592 26.286 -46.522 5.754 -55.322zm9.838 39.084c-5.656 22.062 -22.244 19.3 -27.106 -1 -3.954 -16.524 3.274 -39.224 14.258 -37.8 4.146 0.538 7.558 3.848 9.738 7.2 5.576 8.594 5.692 21.548 3.11 31.598z" fill="#ff8684" stroke-width="1"></path><path d="M215.784 251.726c-3.022 -0.298 -4.8 5.032 -5.132 8.074a15.934 15.934 0 0 0 0.382 5.52c2.2 8.852 9.514 7.162 9.85 -3.984a13.218 13.218 0 0 0 -1.378 -6.6 5.362 5.362 0 0 0 -3.722 -3.01z" fill="#ff8684" stroke-width="1"></path><path d="M289 228.064c-0.65 -0.174 -19.638 -5.02 -23.31 -5.862a73.788 73.788 0 0 0 -7.588 -1.516 7.758 7.758 0 0 0 -4.022 0.814 33.516 33.516 0 0 0 -5.31 3.06c-1.74 1.18 -3.418 2.45 -5.054 3.77 -0.388 0.312 -0.772 0.626 -1.156 0.944a2.508 2.508 0 0 0 -0.774 0.8 1.3 1.3 0 0 0 0.97 1.8l1.924 0.362c7.388 1.38 14.812 2.646 22.284 3.488a73.912 73.912 0 0 0 10.06 0.628 19.466 19.466 0 0 0 10.486 -3.534 22.078 22.078 0 0 0 2.134 -1.668c0.6 -0.538 1.418 -1.142 1.082 -2.062 -0.268 -0.75 -1.046 -0.846 -1.726 -1.024zm93.498 -5.69a0.82 0.82 0 0 1 -0.06 -0.11v0.032c0.034 0.104 0.15 0.21 0.06 0.078z" fill="#fee992" stroke-width="1"></path><path d="M382.46 222.184a0.096 0.096 0 0 0 -0.022 0.08 0.2 0.2 0 0 1 0.022 -0.08zm-8.624 -6.424c-1.058 1.982 0.042 3.556 0.8 4.932 1.768 3.184 5.382 8.416 7.136 5.22a8.2 8.2 0 0 0 0.662 -3.648c-1.752 -3.884 -6.568 -10.308 -8.598 -6.504z" fill="#fee992" stroke-width="1"></path><path d="M295.2 246.33a37.572 37.572 0 0 1 2.272 -5.976c5.13 -10.914 9.684 -11.2 16.346 -11.704 -0.022 0.2 -0.012 -0.22 0.294 12.094a0.556 0.556 0 0 0 1.11 0c-0.302 -12.032 -0.258 -11.966 -0.33 -12.168 1.11 -0.08 2.22 -0.162 3.33 -0.234l0.458 13.08c0.024 0.712 1.132 0.716 1.108 0l-0.46 -13.146c1.224 -0.076 35.858 -1.858 39.254 -2.01a101 101 0 0 1 1.026 14.026 0.556 0.556 0 0 0 1.11 0 97.838 97.838 0 0 0 -1.052 -14.076l2.382 -0.104a96.56 96.56 0 0 1 1.236 10.778c0.04 0.71 1.15 0.714 1.108 0a98.944 98.944 0 0 0 -1.234 -10.828l2.756 -0.122c4.536 -0.2 8.188 3.346 10.146 7.016a22.942 22.942 0 0 1 1.662 4.108c0.2 0.68 1.278 0.4 1.07 -0.296a17.32 17.32 0 0 0 -8.06 -10.842c-2.906 -1.468 -3.672 -1.158 -7.834 -0.964 -0.042 -0.044 -52.088 2.818 -52.148 2.822a14.842 14.842 0 0 0 -4.286 0.828 18.722 18.722 0 0 0 -8.63 8.622 41.702 41.702 0 0 0 -3.564 8.326 18.642 18.642 0 0 0 -0.14 0.476 0.556 0.556 0 0 0 1.07 0.294zm89.93 -6.118c-13.94 5.444 -34.628 7.374 -49.64 8.2 -15.098 0.826 -31.652 0.848 -46.6 0.348 -2.12 -0.07 -9.374 -0.4 -9.414 -0.4 -0.712 -0.042 -0.71 1.066 0 1.108 2.53 0.15 5.062 0.25 7.6 0.342 14.438 0.528 30.416 0.57 45.214 -0.122 15.298 -0.714 36.288 -2.518 50.788 -7.534q1.182 -0.4 2.344 -0.86c0.662 -0.27 0.378 -1.342 -0.292 -1.082zm-76.674 -22.284c-1.698 0.164 -3.422 0.268 -5.112 0.51h-0.072c-0.702 0.074 -0.71 1.184 0 1.11 10 -1.05 42.4 -4.108 52.556 -2.946 0.71 0.082 0.704 -1.026 0 -1.108 -9.414 -1.094 -37.936 1.522 -47.372 2.434zm-53.558 -10.098c1.97 0.698 3.936 1.422 5.866 2.228 0.656 0.276 0.944 -0.8 0.294 -1.068a112.482 112.482 0 0 0 -15.984 -5.328 40.174 40.174 0 0 0 -11.42 -1.58 20.924 20.924 0 0 0 -11.624 5.18 36.576 36.576 0 0 0 -6.78 6.926c-0.424 0.578 0.538 1.13 0.956 0.56l0.154 -0.2 0.178 -0.226q0.522 -0.654 1.078 -1.288a40.6 40.6 0 0 1 3.974 -3.962 29.952 29.952 0 0 1 5.766 -4 15.214 15.214 0 0 1 5.6 -1.836 34.638 34.638 0 0 1 10.934 1.274 108.952 108.952 0 0 1 11.008 3.32zm47.03 -21.374a22.4 22.4 0 0 1 6.442 -5.318c2.07 -1.038 12.574 -0.648 13.258 0.496a4.754 4.754 0 0 1 0.482 2.13 7.568 7.568 0 0 1 -0.166 2.276c-0.48 1.876 -14.04 0.366 -19.448 3 -0.642 0.312 -0.082 1.268 0.56 0.956a35.648 35.648 0 0 1 10.28 -1.614c9.176 -0.528 9.852 0.336 9.898 -3.958 0.012 -1.304 -0.096 -3.6 -1.568 -4.166a9.4 9.4 0 0 0 -2.142 -0.4 51.506 51.506 0 0 0 -10.14 -0.282 14.662 14.662 0 0 0 -5.508 3.416 29.962 29.962 0 0 0 -2.732 2.696c-0.468 0.512 0.312 1.312 0.784 0.768zM190.94 194.014a19.298 19.298 0 0 0 -5.6 -4.542 5.446 5.446 0 0 0 -2.964 -0.612 44.322 44.322 0 0 0 -10 4.678A33.46 33.46 0 0 0 166 198.188a6.638 6.638 0 0 0 -1.6 2.166 3.452 3.452 0 0 0 0.378 3.292 9 9 0 0 0 7.2 3c2.318 -0.056 7.238 -3.354 11.904 -5a8 8 0 0 1 5.894 -0.48 3.156 3.156 0 0 1 0.99 0.788c0.466 0.542 1.246 -0.246 0.784 -0.784a5.4 5.4 0 0 0 -5.188 -1.344 25.856 25.856 0 0 0 -6.668 2.4c-2.542 1.2 -6.266 3.312 -7.778 3.32a10 10 0 0 1 -3.858 -0.8 4.724 4.724 0 0 1 -2.636 -2.186 2.556 2.556 0 0 1 0.426 -2.516c2.286 -3.2 14.72 -10.642 17.688 -10.02a12.152 12.152 0 0 1 5.504 3.632c0.762 0.75 1.488 1.54 2.184 2.354 2.612 3.05 2.618 1.534 2.376 1.2a36.694 36.694 0 0 0 -2.66 -3.196zm-8.878 18.296c-0.048 -0.71 -1.156 -0.714 -1.11 0q0.8 12.022 1.098 24.076 0.084 3.426 0.126 6.852a0.556 0.556 0 0 0 1.11 0q-0.154 -12.05 -0.8 -24.088 -0.196 -3.424 -0.424 -6.84zm70.478 58.582 -5.442 -0.624a0.556 0.556 0 0 0 -0.554 0.554 0.568 0.568 0 0 0 0.554 0.554l5.442 0.626a0.558 0.558 0 0 0 0.556 -0.556 0.57 0.57 0 0 0 -0.556 -0.554zm-120.498 -31.668c-3.158 -1.368 -4.974 2.448 -5.6 4.91 -1.758 7 2.69 13.624 6.682 10.322 3.406 -2.814 3.902 -13.072 -1.082 -15.232zm-3.09 13.894c-2.2 -2.582 -2.328 -7.58 -0.6 -10.964 0.5 -0.98 1.274 -2.2 2.536 -2.104a3.896 3.896 0 0 1 2.768 2.278c2.814 5.282 -0.816 15.34 -4.704 10.79zm88.152 -2.178c-8.2 -3.428 -10.778 18.784 -2.4 21 7.684 2.034 10.53 -17.604 2.4 -21zm3.78 10.4c-0.264 10.964 -7.634 12.952 -9.85 3.984a15.934 15.934 0 0 1 -0.382 -5.52c0.334 -3.08 2.124 -8.372 5.132 -8.074a5.362 5.362 0 0 1 3.722 3.016 13.05 13.05 0 0 1 1.378 6.59zm66.302 -26.988a23.722 23.722 0 0 0 2.572 -1.844 7.372 7.372 0 0 0 1.858 -1.828 2.412 2.412 0 0 0 -0.25 -2.68 3.6 3.6 0 0 0 -2.066 -1c-3.37 -0.89 -17.978 -4.616 -21.924 -5.538 -2.874 -0.674 -5.768 -1.388 -8.696 -1.8a8 8 0 0 0 -3.932 0.4 26.764 26.764 0 0 0 -5.532 2.886 72.11 72.11 0 0 0 -5.482 3.974c-0.758 0.6 -1.51 1.2 -2.244 1.822a2.424 2.424 0 0 0 -0.836 2.482 2.386 2.386 0 0 0 1.694 1.688 0.828 0.828 0 0 0 0.12 0.036c7.528 1.438 15.096 2.744 22.706 3.678a89.984 89.984 0 0 0 11.048 0.852 20.242 20.242 0 0 0 4.024 -0.342 21.376 21.376 0 0 0 6.94 -2.786zm-20.216 1.37c-7.47 -0.842 -14.896 -2.11 -22.284 -3.488l-1.924 -0.362a1.3 1.3 0 0 1 -0.97 -1.8 2.508 2.508 0 0 1 0.774 -0.8c0.384 -0.318 0.768 -0.632 1.156 -0.944a77.256 77.256 0 0 1 5.054 -3.77 33.582 33.582 0 0 1 5.31 -3.06 7.758 7.758 0 0 1 4.022 -0.814 73.894 73.894 0 0 1 7.588 1.516c3.67 0.842 22.66 5.688 23.31 5.862s1.452 0.274 1.726 1.022c0.336 0.92 -0.476 1.526 -1.082 2.062a22.078 22.078 0 0 1 -2.134 1.668 19.466 19.466 0 0 1 -10.486 3.534 73.892 73.892 0 0 1 -10.06 -0.626zm106.196 -15.428a33.95 33.95 0 0 0 2.632 4.318c5.786 7.884 9.118 -0.074 7.3 -3.494a20.494 20.494 0 0 0 -5.782 -7.186c-2.848 -1.682 -6.666 1.574 -4.15 6.362zm0.67 -4.534c2.03 -3.8 6.848 2.63 8.6 6.504a0.094 0.094 0 0 1 0.022 -0.08 0.2 0.2 0 0 0 -0.022 0.08 0.73 0.73 0 0 0 0.06 0.11c0.09 0.132 -0.026 0.028 -0.058 -0.078 -0.046 5.72 -3 7.042 -7.8 -1.6 -0.816 -1.478 -1.85 -2.972 -0.802 -4.936zm8.602 6.504zm-178.136 -21.894c-1.624 -2.8 -3.094 -5.71 -4.484 -8.638 -2.956 -6.226 -8.244 -18.436 -6.168 -25.024a0.5 0.5 0 0 0 -0.364 -0.654 0.546 0.546 0 0 0 -0.706 0.36c-1.46 4.636 0.554 11.556 2.18 16.118a116.152 116.152 0 0 0 6.882 15.296c0.552 1.042 1.11 2.082 1.702 3.102a0.558 0.558 0 0 0 1.016 -0.422 0.58 0.58 0 0 0 -0.058 -0.138z" fill="#000000" stroke-width="1"></path><path d="M155.85 291.33q-10.2 -0.384 -20.4 -0.128a0.556 0.556 0 0 0 0 1.11q10.2 -0.258 20.4 0.128c0.714 0.026 0.712 -1.084 0 -1.11zm-12.696 -3.13a0.556 0.556 0 0 0 0 -1.11h-3.626a0.556 0.556 0 0 0 0 1.11zm69.798 3.578q-11.762 -1.02 -23.588 -0.912a0.554 0.554 0 0 0 0 1.108q11.8 -0.102 23.588 0.914c0.71 0.06 0.706 -1.05 0 -1.11zm5.432 -4.606a4.924 4.924 0 0 0 -1.6 -0.106l-10.2 0.03a0.554 0.554 0 0 0 0 1.108c12 -0.048 11.354 -0.092 11.68 0.13 -0.188 0.514 0.476 1.086 0.89 0.6 0.63 -0.734 0.006 -1.498 -0.77 -1.762zm-140.02 17.582h-7.702a0.556 0.556 0 0 0 0 1.11h7.702a0.556 0.556 0 0 0 0 -1.11z" fill="#76d3de" stroke-width="1"></path><path d="M90.58 225.23a1.358 1.358 0 0 1 -1.28 0.022 3.6 3.6 0 0 1 -1.488 -1.812 10.6 10.6 0 0 1 -0.696 -7 2.834 2.834 0 0 1 -2.348 0.718c-1.688 -0.47 -1.354 -2.694 -1 -3.95a10.328 10.328 0 0 1 3.04 -4.852l-0.078 -0.344a56.448 56.448 0 0 1 -33.698 -1.708 0.62 0.62 0 0 1 -0.6 0.336c0.764 12.234 4.552 71.38 6.52 76.252 2.2 5.436 12.124 1.65 12.03 -2.686s1.6 -54.618 1.6 -54.618c4.078 14.662 5.514 29.082 10.462 43.478 1.124 3.27 2.268 6.546 3.628 9.726a8.4 8.4 0 0 0 4.708 5.45c2.89 1.03 7.044 1.15 9.186 -1.35 1.812 -2.126 -5.15 -35.614 -9.986 -57.662z" fill="#7d4ab4" stroke-width="1"></path><path d="M80.374 147.292a32.974 32.974 0 0 0 -28.092 7.816 16.044 16.044 0 0 1 -15.2 3.566 9.648 9.648 0 0 1 -6.13 -4.578 27.154 27.154 0 0 1 -2.2 -5.446L11.4 151.822c1.32 10.4 9.022 27.27 36.908 25.44l0.328 2.23a72.568 72.568 0 0 1 0.418 -10.506 37.738 37.738 0 0 1 1.866 -8.444 17.104 17.104 0 0 1 2.128 -4.236 6.106 6.106 0 0 1 1.172 -1.292c0.57 -0.432 1.122 0.532 0.56 0.958 0 0 0.156 -0.128 0.092 -0.07 -3.16 2.862 -4.472 10.358 -4.872 14.626a86.574 86.574 0 0 0 0.022 14.366 166.922 166.922 0 0 0 2.756 19.552c0.098 0.498 0.2 1 0.294 1.494a0.546 0.546 0 0 1 -0.044 0.354 56.448 56.448 0 0 0 33.7 1.706c0.234 -0.06 0.468 -0.116 0.704 -0.178 0.098 -0.078 0.2 -0.148 0.306 -0.22l0.05 -0.696a13.536 13.536 0 0 1 -0.42 -0.542 0.554 0.554 0 0 1 0.086 -0.672l0.446 -0.352 2.4 -33.28s17.218 0.8 12.234 13.636a60.738 60.738 0 0 1 -9.282 15.978l10.554 7.14c3.662 -4.456 10.672 -13.85 13.83 -23.872 4.374 -13.894 -15.92 -34.222 -37.262 -37.65zm-53.34 -44.268a4.714 4.714 0 0 1 1.306 0.636 3.666 3.666 0 0 1 0.494 1.276l1 2.918c0.152 -0.462 0.79 -2.32 0.956 -2.784a6.166 6.166 0 0 1 0.486 -1.298c0.234 -0.346 0.8 -0.364 1.176 -0.452l3.094 -0.724 -4.072 -1.868a0.446 0.446 0 0 1 -0.286 -0.424l-1.328 -3.888c-0.162 0.49 -0.8 2.388 -0.966 2.846a6.034 6.034 0 0 1 -0.466 1.266c-0.236 0.348 -0.8 0.362 -1.188 0.446l-3.146 0.698zm13.928 18.838q0.294 -0.962 0.64 -1.966c0.2 -0.576 0.4 -1.134 0.6 -1.676l3.59 -0.84 -3.592 -1.648 -1.242 -3.642q-0.358 1.118 -0.756 2.274 -0.244 0.692 -0.488 1.368l-3.648 0.81 3.648 1.678zm-27.098 -6.24c0.146 -0.472 0.3 -0.954 0.47 -1.444q0.22 -0.632 0.444 -1.232l2.634 -0.616 -2.634 -1.212q-0.46 -1.338 -0.914 -2.674 -0.262 0.822 -0.556 1.668a47.3 47.3 0 0 1 -0.358 1l-2.68 0.6 2.68 1.232z" fill="#ffd35c" stroke-width="1"></path><path d="M127.75 288h-7.704a0.556 0.556 0 0 0 0 1.11h7.704a0.556 0.556 0 0 0 0 -1.11zm-78.834 -5.43 -9.51 0.548c-0.71 0.04 -0.714 1.148 0 1.108l9.51 -0.546c0.71 -0.04 0.714 -1.15 0 -1.11zM39.4 275.42a137.416 137.416 0 0 0 -16.308 0.48c-0.704 0.062 -0.712 1.172 0 1.11a138.272 138.272 0 0 1 16.308 -0.482 0.554 0.554 0 0 0 0 -1.108z" fill="#76d3de" stroke-width="1"></path><path d="m37.52 102.29 -5.32 -2.444 -1.816 -5.314a0.558 0.558 0 0 0 -1.068 0q-0.842 2.638 -1.786 5.242l-5.308 1.178a0.56 0.56 0 0 0 -0.132 1.014l5.41 2.488 1.816 5.314a0.558 0.558 0 0 0 1.068 0q0.822 -2.646 1.788 -5.246l5.216 -1.218a0.56 0.56 0 0 0 0.132 -1.014zm-3.6 0.684 -1.476 0.346c-0.378 0.088 -0.942 0.106 -1.176 0.452a6.2 6.2 0 0 0 -0.486 1.298c-0.168 0.466 -0.8 2.322 -0.956 2.784 -0.168 -0.492 -0.832 -2.436 -1 -2.918a3.666 3.666 0 0 0 -0.494 -1.276 4.714 4.714 0 0 0 -1.306 -0.636l-2.942 -1.352 3.146 -0.698c0.378 -0.084 0.952 -0.098 1.188 -0.446a6 6 0 0 0 0.466 -1.266c0.162 -0.458 0.8 -2.356 0.966 -2.846l1.328 3.888a0.446 0.446 0 0 0 0.286 0.424l4.072 1.868zm-5.08 24.79c-1.678 -4 -7.292 -5.134 -11.572 -4.412a8.476 8.476 0 0 0 -3.178 1.046 3.94 3.94 0 0 0 -1.672 2.72 8.07 8.07 0 0 0 0.03 3.572 0.552 0.552 0 0 0 -0.058 0.252q0 5.758 -0.15 11.512l-1.686 0.176a0.568 0.568 0 0 0 -0.554 0.554v8.232a0.562 0.562 0 0 0 0.702 0.534l19 -3.474a0.458 0.458 0 0 0 0.4 -0.548 0.618 0.618 0 0 0 0 -0.134l-1.02 -6.644a0.546 0.546 0 0 0 -0.534 -0.4c-0.268 0.026 -0.534 0.054 -0.8 0.084a22 22 0 0 1 -0.29 -5c0.166 -0.678 4.784 -1.328 6.542 -2.584a2.566 2.566 0 0 0 0.372 -4.03 7.62 7.62 0 0 0 -5.532 -1.456zm-0.778 14.136 0.858 5.6 -17.81 3.252v-7.07zm-1.662 -6.542a18.888 18.888 0 0 0 0.224 5.584l-13.272 1.4q0.126 -4.914 0.138 -9.83a3.382 3.382 0 0 0 0.522 0.416 2.614 2.614 0 0 0 3.788 -1.654c0.414 1.232 1.2 2.26 2.542 2.136a3.314 3.314 0 0 0 2.418 -2.156c0.97 3.8 5.378 3.282 5.066 -1.58 -0.048 -0.708 -1.156 -0.714 -1.11 0 0.17 2.69 -1.108 3.276 -1.932 2.816 -1.082 -0.6 -1.096 -2.42 -1.34 -4.4 -0.086 -0.688 -1.112 -0.734 -1.11 0 0 3.15 -2.246 5.918 -3.424 3a6.086 6.086 0 0 1 -0.38 -2.652 0.556 0.556 0 0 0 -1.088 -0.148 11.842 11.842 0 0 1 -0.8 2.898c-0.448 0.784 -1.332 1.344 -2.154 0.722a4.688 4.688 0 0 1 -0.938 -4.754 2.748 2.748 0 0 1 1.6 -2.058c3.652 -1.684 11.282 -1.12 12.762 3.336a0.558 0.558 0 0 0 0.734 0.35c0.674 0.48 4.2 -0.4 5.27 1.708 1.556 3.018 -6.962 2.964 -7.516 4.866zm22.372 47.384a160.032 160.032 0 0 0 2.628 20.434q0.288 1.53 0.6 3.058a0.464 0.464 0 0 0 0.428 0.4 0.622 0.622 0 0 0 0.6 -0.336 0.536 0.536 0 0 0 0.044 -0.354c-0.1 -0.498 -0.2 -1 -0.294 -1.494a166.922 166.922 0 0 1 -2.756 -19.552A86.574 86.574 0 0 1 50 170.528c0.4 -4.238 1.712 -11.79 4.872 -14.626 0.064 -0.058 -0.092 0.07 -0.092 0.07 0.562 -0.426 0.01 -1.4 -0.56 -0.958a6.106 6.106 0 0 0 -1.172 1.292 17 17 0 0 0 -2.128 4.236 37.738 37.738 0 0 0 -1.866 8.444 72.556 72.556 0 0 0 -0.418 10.506q0.044 1.626 0.136 3.25zm57.206 27.546 -12.8 -8.66a0.468 0.468 0 0 0 -0.63 0.06s-4.942 3.89 -5.092 4a0.554 0.554 0 0 0 -0.086 0.672 17.326 17.326 0 0 0 0.766 0.958c-0.136 0.088 -0.264 0.186 -0.4 0.28a9.72 9.72 0 0 0 -0.932 0.742 10.318 10.318 0 0 0 -3.04 4.852 8.12 8.12 0 0 0 -0.262 1.356 15.28 15.28 0 0 1 -2.876 -4.2c-0.298 -0.648 -1.256 -0.084 -0.958 0.56a16.162 16.162 0 0 0 4.058 5.386 1.576 1.576 0 0 0 1.04 0.852h0.032a16.082 16.082 0 0 0 1.932 1.228 0.63 0.63 0 0 0 0.092 0.36 10.488 10.488 0 0 0 0.988 4.698 3.586 3.586 0 0 0 1.488 1.812 1.352 1.352 0 0 0 1.28 -0.022 1.65 1.65 0 0 0 0.6 -0.578 7.556 7.556 0 0 0 0.748 -1.866 3.886 3.886 0 0 0 2.254 2.558 1.514 1.514 0 0 0 1.482 -0.042 2.6 2.6 0 0 0 0.736 -1.382c0.09 -0.274 0.162 -0.552 0.23 -0.83a4.332 4.332 0 0 0 1.67 2.352 1.476 1.476 0 0 0 2 -0.638 5.71 5.71 0 0 0 0.36 -2.776 67.842 67.842 0 0 0 -0.122 -6.958 16.354 16.354 0 0 0 -0.136 -0.99c2.43 0.262 1.45 0.59 5.706 -2.92a0.56 0.56 0 0 0 -0.128 -0.864zm-19.024 6.954a14.71 14.71 0 0 1 -0.578 -0.346 5.784 5.784 0 0 0 0.74 -0.466c-0.066 0.268 -0.116 0.54 -0.162 0.812zm12.312 7.102c-0.758 0.932 -2.134 -2.328 -2.272 -4.552a0.554 0.554 0 0 0 -1.108 0 11.652 11.652 0 0 1 -0.34 3.056 5.346 5.346 0 0 1 -0.424 1.348c-0.222 0.38 -0.634 0.114 -0.946 -0.09 -1.612 -1.058 -1.6 -3.274 -1.58 -4.976a0.554 0.554 0 0 0 -1.108 0 15.324 15.324 0 0 1 -1 4.344c-0.052 0.13 -0.108 0.32 -0.2 0.484 -0.098 0.2 -0.23 0.35 -0.434 0.332 -0.25 -0.024 -0.516 -0.388 -0.644 -0.574a9.4 9.4 0 0 1 -0.066 -9.456 0.556 0.556 0 0 0 -0.958 -0.56c-0.044 0.066 -0.092 0.128 -0.136 0.2a6.964 6.964 0 0 1 -1.384 1.484 2.724 2.724 0 0 1 -1.444 0.724 10.54 10.54 0 0 1 -0.584 -0.472 2.738 2.738 0 0 1 0 -1.352 9 9 0 0 1 2.442 -4.672 9.296 9.296 0 0 1 1.8 -1.46 22.956 22.956 0 0 0 3.216 2.696 19.108 19.108 0 0 0 5.432 2.66 16.2 16.2 0 0 0 1.708 0.4 28.134 28.134 0 0 1 0.296 5.4v2.934c0.004 0.598 0.148 1.59 -0.266 2.102zm2.772 -11.268a15.03 15.03 0 0 1 -3.1 -0.378 19.294 19.294 0 0 1 -10.312 -6.524l4.292 -3.382 11.86 8.02q-1.368 1.134 -2.74 2.264zm-35.868 73.356h-7.8a3.576 3.576 0 0 0 -1.64 0.4c-3.496 1.8 -17.564 9.272 -17.102 11.986 0.528 3.096 25.522 -2.946 28.318 -4.986a4.92 4.92 0 0 0 1.766 -3.312 3.562 3.562 0 0 0 -3.542 -4.088zm36.866 2.75a3.6 3.6 0 0 0 -1.562 -0.64l-7.712 -1.166a3.562 3.562 0 0 0 -4.112 3.512 4.91 4.91 0 0 0 1.25 3.54c2.458 2.434 26.268 12.144 27.254 9.162 0.864 -2.612 -11.932 -12.098 -15.118 -14.408zm-33.608 -69.692c-0.022 -0.374 0 -0.58 -0.176 -0.77l-1.764 -7.022a0.556 0.556 0 0 0 -1.07 0.296l1.922 7.642a0.556 0.556 0 0 0 1.088 -0.146zm0.888 -7.364c-0.126 -0.702 -1.2 -0.4 -1.07 0.296q0.71 3.97 1.74 7.87a0.556 0.556 0 0 0 1.07 -0.294q-1.028 -3.9 -1.74 -7.872zm-16.17 2.176a0.562 0.562 0 0 0 0.76 -0.2 12.898 12.898 0 0 0 1.112 -4.4 0.56 0.56 0 0 0 -0.554 -0.554 0.566 0.566 0 0 0 -0.554 0.554 11.4 11.4 0 0 1 -0.962 3.84 0.57 0.57 0 0 0 0.198 0.76zm36.706 -48.526a22.074 22.074 0 0 0 -1.2 3.474l-0.552 -0.742a0.57 0.57 0 0 0 -0.758 -0.2 0.558 0.558 0 0 0 -0.2 0.758l1.308 1.756a0.568 0.568 0 0 0 0.552 0.264 0.546 0.546 0 0 0 0.462 -0.4 20.736 20.736 0 0 1 1.342 -4.358 0.572 0.572 0 0 0 -0.2 -0.758 0.56 0.56 0 0 0 -0.754 0.206zm22.24 12.128a15.788 15.788 0 0 1 3.178 -0.098 0.556 0.556 0 0 0 0.554 -0.554 0.57 0.57 0 0 0 -0.554 -0.556 16.526 16.526 0 0 0 -3.472 0.138 0.556 0.556 0 0 0 -0.388 0.682 0.576 0.576 0 0 0 0.682 0.388zm2.908 0.064a12.116 12.116 0 0 0 -1.918 1.452 0.556 0.556 0 0 0 0 0.784c0.588 0.542 0.774 -0.236 2.476 -1.28a0.554 0.554 0 1 0 -0.558 -0.956zm-86.426 -8.442a0.552 0.552 0 0 0 -0.782 -0.782 9.326 9.326 0 0 0 -2.08 3.494 0.554 0.554 0 0 0 1.07 0.294 8.096 8.096 0 0 1 1.792 -3.006zm1.658 -0.006a0.568 0.568 0 0 0 -0.758 0.2c-0.788 1.154 -1.904 2.778 -1.162 3.172a0.56 0.56 0 0 0 0.758 -0.2 16.344 16.344 0 0 1 1.362 -2.412 0.558 0.558 0 0 0 -0.2 -0.76zm34.436 -36.062a4.4 4.4 0 0 0 4 4.91c4.53 0.678 6.646 -4.91 6.646 -4.91a43.05 43.05 0 0 1 -10.646 0zm13.24 -4.98c-0.834 -0.228 -0.912 2.012 -2.474 1.782 0.028 0 -0.104 -0.024 -0.13 -0.03 -1.278 -0.366 -0.346 -2.23 -1.364 -2.23a0.562 0.562 0 0 0 -0.552 0.554 2.324 2.324 0 0 0 3.826 2.222 3.708 3.708 0 0 0 1.08 -1.614 0.558 0.558 0 0 0 -0.386 -0.684zm-9.908 -1.442a0.554 0.554 0 0 0 -1.07 -0.294c-0.6 1.962 -2.264 2.042 -2.682 1.104a2.88 2.88 0 0 1 -0.168 -1.03 0.568 0.568 0 0 0 -0.554 -0.554 0.56 0.56 0 0 0 -0.556 0.554 3.182 3.182 0 0 0 0.636 2.052 2.166 2.166 0 0 0 1.666 0.656 3.17 3.17 0 0 0 2.728 -2.488zm10.448 -3.412c-0.016 -0.044 -0.066 -0.106 0 0z" fill="#000000" stroke-width="1"></path><path d="M78.056 121.112a0.564 0.564 0 0 0 -0.682 0.386c-0.168 0.744 1.818 0.894 2.2 2.516a0.554 0.554 0 0 0 1.07 -0.294 3.562 3.562 0 0 0 -2.588 -2.608z" fill="#000000" stroke-width="1"></path><path d="M91.09 132.442a3.29 3.29 0 0 0 -4.184 -2.544 15.368 15.368 0 0 0 0.022 -2.014 0.6 0.6 0 0 0 0.14 -0.066 0.488 0.488 0 0 0 0.344 -0.272c2.06 -4.05 3.834 -8.664 2.532 -13.24a10.23 10.23 0 0 0 -3.442 -5.118 21.952 21.952 0 0 0 -5.572 -3.252 2.506 2.506 0 0 0 -2.774 0.8 2.2 2.2 0 0 0 -0.224 1.88 23.112 23.112 0 0 0 -9.266 -2.358c-2.822 -0.036 -7.2 0.8 -7.134 4.464a2.964 2.964 0 0 0 1.8 2.646 7.04 7.04 0 0 0 -4.682 5.306 5.518 5.518 0 0 0 0.882 3.982 3.834 3.834 0 0 0 2.548 1.638 22.46 22.46 0 0 0 -3.432 7.878 11.612 11.612 0 0 0 1.91 9.048 10.44 10.44 0 0 0 3.374 3l-0.05 0.304c-0.69 0.216 -3.342 1.544 -4.362 2.086a33.6 33.6 0 0 0 -3.354 2 2.894 2.894 0 0 0 -1.346 1.53 5.548 5.548 0 0 0 1.02 4 27.432 27.432 0 0 0 2.958 4.056c0.666 0.784 1.354 1.554 2.08 2.282a0.57 0.57 0 0 0 0.786 0l6.84 -6.044c1.884 1.454 9.134 7.036 9.134 7.036a0.55 0.55 0 0 0 0.56 0 16.742 16.742 0 0 0 2.71 -1.8A23.532 23.532 0 0 0 86 154.248a21.938 21.938 0 0 0 2.456 -4.898 0.556 0.556 0 0 0 -0.142 -0.54 20.382 20.382 0 0 0 -2.308 -2.186 11.424 11.424 0 0 0 -4.582 -2.526q0.16 -1.864 0.188 -3.728a19 19 0 0 0 1.936 -2.11 17.916 17.916 0 0 0 1.064 -1.534 4.8 4.8 0 0 0 4.186 -0.16 4.17 4.17 0 0 0 2.306 -3.848v-0.138c0 -0.046 -0.008 -0.092 -0.014 -0.138zM61.772 158.91l-0.482 0.426a32.4 32.4 0 0 1 -4 -4.932 6.626 6.626 0 0 1 -1.462 -3.648c0.036 -0.516 0.304 -0.768 0.764 -1.092a31.292 31.292 0 0 1 3.056 -1.862q1.98 -1.08 4.052 -2a19.372 19.372 0 0 0 -0.024 5.022 3.4 3.4 0 0 0 1.6 2.8 6.352 6.352 0 0 0 1.888 0.528zm3.136 -7.548a13.756 13.756 0 0 1 -0.17 -4.634c0.054 -0.666 0.132 -1.332 0.23 -2a10.74 10.74 0 0 0 2.626 0.72 17.228 17.228 0 0 0 12.89 -4.084 40.092 40.092 0 0 1 -0.984 8c-0.504 1.848 -0.682 3.508 -8.916 3.8 -2.08 0.072 -5.136 0.206 -5.676 -1.802zm20.53 -3.778a21.13 21.13 0 0 1 1.848 1.744 21.708 21.708 0 0 1 -8.774 10.688 14.06 14.06 0 0 1 -0.556 0.332l-7.876 -6.066a30.928 30.928 0 0 0 3.824 -0.308A17.546 17.546 0 0 0 78 153a3.48 3.48 0 0 0 2.082 -1.95 15.272 15.272 0 0 0 0.986 -3.868c0.098 -0.656 0.18 -1.314 0.252 -1.974a10.888 10.888 0 0 1 4.118 2.376zm2.8 -11.976a3.49 3.49 0 0 1 -3.526 -0.112 0.56 0.56 0 0 0 -0.76 0.2 17.83 17.83 0 0 1 -14.212 8.77 9.8 9.8 0 0 1 -7.104 -2.51 10.5 10.5 0 0 1 -3.114 -8.2 15.374 15.374 0 0 1 1.258 -4.686 21.948 21.948 0 0 1 4.02 -6.44 15.884 15.884 0 0 1 10.702 -5.256 8.96 8.96 0 0 1 7.098 2.47 13.366 13.366 0 0 1 3.118 10.81 0.558 0.558 0 0 0 0.702 0.536c1.314 -0.512 3.414 -0.366 3.582 1.4a3.098 3.098 0 0 1 -1.76 3.01z" fill="#000000" stroke-width="1"></path><path d="M87.498 132.124c-2.936 0.666 -1.954 2.4 -1.05 1.69l-0.062 0.05c1.01 -0.782 2.046 -0.574 1.8 -1.352a0.568 0.568 0 0 0 -0.688 -0.388z" fill="#000000" stroke-width="1"></path><path d="m74.152 158.8 -5.658 -4.358 -4.84 4.276 2.416 2.64 -4.848 28.024a24.518 24.518 0 0 0 4.09 9.984l6.756 -8.91c-0.548 -4.63 -1.746 -23.214 -2.064 -28.2z" fill="#b26ee6" stroke-width="1"></path></svg>